<?xml version="1.0" encoding="UTF-8"?>
<!--Generator: Apple Native CoreSVG 232.5-->
<!DOCTYPE svg
PUBLIC "-//W3C//DTD SVG 1.1//EN"
       "http://www.w3.org/Graphics/SVG/1.1/DTD/svg11.dtd">
<svg version="1.1" xmlns="http://www.w3.org/2000/svg" xmlns:xlink="http://www.w3.org/1999/xlink" width="129.741" height="129.841">
 <g>
  <rect height="129.841" opacity="0" width="129.741" x="0" y="0"/>
  <path d="M64.8457 129.841C100.356 129.841 129.741 100.456 129.741 64.9453C129.741 29.4844 100.307 0.0996094 64.7959 0.0996094C29.335 0.0996094 0 29.4844 0 64.9453C0 100.456 29.3848 129.841 64.8457 129.841Z" fill="#0a84ff"/>
  <path d="M64.8955 68.6807C63.9492 68.6807 62.8535 68.332 61.8076 67.3857L29.3848 38.6484C31.0781 37.5527 32.9707 37.1045 35.6104 37.1045L94.2305 37.1045C96.7705 37.1045 98.7129 37.6025 100.456 38.6484L67.9834 67.3857C66.9375 68.332 65.8916 68.6807 64.8955 68.6807ZM26.6953 87.9053C26.0479 86.6104 25.6992 85.1162 25.6992 83.0742L25.6992 46.8662C25.6992 44.7744 26.1475 43.0312 26.5957 42.2344L50.8506 63.7002ZM34.8633 92.8359C32.4727 92.8359 30.7793 92.2881 29.5342 91.4414L54.2871 66.7383L59.0684 70.9717C60.9111 72.6152 62.9033 73.4121 64.8955 73.4121C66.8877 73.4121 68.8799 72.6152 70.8223 70.9717L75.5039 66.7383L100.307 91.4414C99.0117 92.2383 97.2686 92.8359 94.9277 92.8359ZM103.195 87.8555L78.9902 63.7002L103.245 42.2842C103.644 43.1309 104.042 44.7744 104.042 46.8662L104.042 83.0742C104.042 85.0664 103.743 86.6104 103.195 87.8555Z" fill="#ffffff"/>
 </g>
</svg>
